<svg width="171" height="16" viewBox="0 0 171 16" fill="none" xmlns="http://www.w3.org/2000/svg">
<path d="M85.9609 8.42993C85.9609 10.6903 87.2211 12.1564 89.7227 12.1565C92.2243 12.1565 93.4658 10.6936 93.4658 8.42993V1.86743H97.2471V8.72583C97.2471 12.6744 94.5586 15.2698 89.7227 15.2698C84.8867 15.2697 82.1797 12.6743 82.1797 8.72583V1.86743H85.9609V8.42993ZM108.494 1.44263C111.275 1.44263 113.832 2.11187 115.613 3.37231L113.703 5.72583C112.256 4.70657 110.513 4.29786 108.494 4.27856C106.973 4.27859 105.141 4.5198 105.141 5.44556C105.141 6.31694 106.643 6.42927 108.961 6.61255C113.205 6.96626 116.208 7.79959 116.208 10.7834H116.205C116.205 13.4522 113.739 15.2688 109.031 15.2688C105.694 15.2688 102.896 14.3622 100.857 12.7288L102.842 10.3948C104.379 11.6937 106.511 12.4133 109.105 12.4133C111.33 12.4133 112.443 12.0054 112.443 11.1536C112.443 10.3015 111.404 10.0405 108.735 9.8186C104.88 9.48419 101.375 8.63206 101.375 5.74146C101.375 2.85099 104.379 1.44269 108.494 1.44263ZM39.9453 14.842H35.9707L27.5781 12.3596L26.3564 14.842H22.3887L29.0996 1.86743H33.2344L39.9453 14.842ZM47.0029 11.803H55.7324V14.842H43.2217V1.86743H47.0029V11.803ZM70.0605 4.89282H60.8887L64.665 7.27954V14.842H60.8838V4.89282H55.5264V1.87036H70.0605V4.89282ZM77.4883 14.842H73.707V1.86743H77.4883V14.842ZM28.877 9.67114L34.2344 11.3049L31.1377 5.07349L28.877 9.67114Z" fill="#212D98"/>
<path d="M140.188 8.65479C140.188 11.8509 142.102 13.8228 145.504 13.8228C148.906 13.8226 150.799 11.8508 150.799 8.65479V1.87061H152.362V8.74561C152.362 12.5362 149.983 15.2689 145.504 15.269C141.025 15.269 138.629 12.5396 138.629 8.74561V1.87061H140.188V8.65479ZM122.298 7.53955H133.002V1.87061H134.564V14.8804H133.002V9.0249H122.298V14.8804H120.738V1.87061H122.298V7.53955ZM165.079 1.87061C167.719 1.87066 169.594 2.98639 169.594 5.1792C169.594 6.66791 168.719 8.04073 166.806 8.19189C168.831 8.32052 170.336 9.14061 170.336 11.314L170.339 11.311C170.339 13.6904 168.462 14.8803 165.452 14.8804H156.42V1.87061H165.079ZM157.967 13.4653H165.176C167.407 13.4652 168.725 12.7966 168.726 11.1987C168.726 9.58148 167.407 8.93221 165.176 8.93213H157.967V13.4653ZM157.963 7.52002H164.857C166.716 7.51995 168.034 7.0342 168.034 5.40088C168.034 3.76777 166.716 3.28181 164.857 3.28174H157.963V7.52002Z" fill="#212D98"/>
<path d="M0 5.35962L9.23791 10.6393L0.0450206 15.9994L0 5.35962Z" fill="#7DD7F5"/>
<path d="M9.18968 0.000488281L9.23791 10.6403L0 5.3606L9.18968 0.000488281Z" fill="#7A7EF5"/>
<path d="M9.18945 0.000488281L18.4273 5.27699L9.23768 10.6403L9.18945 0.000488281Z" fill="#7ED6F6"/>
<path d="M18.4279 5.27832L18.4762 15.9214L9.23828 10.6416L18.4279 5.27832Z" fill="#20A8EB"/>
</svg>
